<?xml version="1.0" encoding="utf-8"?>

<!-- The icon can be used freely in both personal and commercial projects with no attribution required, but always appreciated. 
You may NOT sub-license, resell, rent, redistribute or otherwise transfer the icon without express written permission from iconmonstr.com -->

<!DOCTYPE svg PUBLIC "-//W3C//DTD SVG 1.1//EN" "http://www.w3.org/Graphics/SVG/1.1/DTD/svg11.dtd">
<svg version="1.1" xmlns="http://www.w3.org/2000/svg" xmlns:xlink="http://www.w3.org/1999/xlink" x="0px" y="0px"
	 width="512px" height="512px" viewBox="0 0 512 512" enable-background="new 0 0 512 512" xml:space="preserve">
<path id="shopping-cart-2-icon" d="M316.566,380c0,14.852-12.039,26.891-26.891,26.891S262.785,394.852,262.785,380
	s12.039-26.891,26.891-26.891S316.566,365.148,316.566,380z M227.682,380c0,14.852-12.039,26.891-26.891,26.891
	S173.9,394.852,173.9,380s12.039-26.891,26.891-26.891S227.682,365.148,227.682,380z M389.609,105.109l-59.18,188.166H159.338
	l-47.582-109.666h181.875L269.023,269h39.795l37.346-125.391H50.418l82.914,189.666h0.275h226.07l59.178-188.166h29.98l12.746-40
	H389.609z" fill="white"/>
</svg>
