<?xml version="1.0" encoding="utf-8"?>

<!-- License Agreement at http://iconmonstr.com/license/ -->

<!DOCTYPE svg PUBLIC "-//W3C//DTD SVG 1.1//EN" "http://www.w3.org/Graphics/SVG/1.1/DTD/svg11.dtd">
<svg version="1.1" xmlns="http://www.w3.org/2000/svg" xmlns:xlink="http://www.w3.org/1999/xlink" x="0px" y="0px"
	 width="512px" height="512px" viewBox="0 0 512 512" enable-background="new 0 0 512 512" xml:space="preserve">
<path id="smiley-tongue-icon" d="M199.666,181.503c-17.126,0-30.992,13.879-30.992,30.992c0,17.126,13.866,31.005,30.992,31.005
	s30.993-13.879,30.993-31.005C230.659,195.382,216.792,181.503,199.666,181.503z M316.325,181.503
	c-17.113,0-30.992,13.879-30.992,30.992c0,17.126,13.879,31.005,30.992,31.005c17.126,0,31.005-13.879,31.005-31.005
	C347.33,195.382,333.451,181.503,316.325,181.503z M277.679,416.848c-27.855-32.678-41.808-52.001-73.435-71.849
	c-19.592-12.292-35.021-29.211-45.702-45.507l8.788-8.788c0.013,0,0.025,0.012,0.025,0.012
	c42.613,33.666,78.599,33.812,158.895,33.812c0,0,24.083,25.756,44.591,49.926C417.897,429.896,335.271,484.399,277.679,416.848z
	 M274.047,461.194C268.096,461.715,262.08,462,256,462c-113.767,0-206-92.233-206-206S142.233,50,256,50s206,92.233,206,206
	c0,48.962-17.113,93.935-45.646,129.288c-5.747-18.848-16.872-31.217-22.106-37.322c17.524-26.319,27.738-57.934,27.738-91.966
	c0-91.758-74.253-165.986-165.986-165.986c-91.745,0-165.999,74.241-165.999,165.986c0,84.672,63.24,154.42,145.1,164.676
	C250.816,439.258,258.521,449.679,274.047,461.194z" fill="#0090E3"/>
</svg>
