<?xml version="1.0" encoding="utf-8"?>

<!-- License Agreement at http://iconmonstr.com/license/ -->

<!DOCTYPE svg PUBLIC "-//W3C//DTD SVG 1.1//EN" "http://www.w3.org/Graphics/SVG/1.1/DTD/svg11.dtd">
<svg version="1.1" id="Layer_1" xmlns="http://www.w3.org/2000/svg" xmlns:xlink="http://www.w3.org/1999/xlink" x="0px" y="0px"
	 width="512px" height="512px" viewBox="0 0 512 512" style="enable-background:new 0 0 512 512;" xml:space="preserve">
<path id="handshake-9" d="M411.572,288.188l-27.896-102.64l57.804-18.742C408.187,97.762,337.776,50,256,50
	c-82.036,0-152.673,48.08-185.808,117.501l58.13,18.047l-27.896,102.64L50,275.027C59.614,379.871,148.658,462,256,462
	c107.342,0,196.377-82.129,206-186.973L411.572,288.188z M157.057,319.863c-5.398-3.965-6.555-11.559-2.598-16.939l13.831-18.685
	c3.956-5.381,11.5-6.571,16.932-2.59c5.432,3.974,6.572,11.542,2.615,16.94l-13.847,18.667
	C170.25,322.37,162.187,323.61,157.057,319.863z M181.499,337.709c-5.381-3.981-6.639-11.399-2.682-16.789l13.948-18.818
	c3.94-5.373,11.5-6.546,16.898-2.598c5.415,3.956,6.605,11.559,2.615,16.923l-13.931,18.835
	C194.676,340.291,186.78,341.565,181.499,337.709z M205.975,355.572c-5.381-3.965-6.572-11.551-2.599-16.958l13.814-18.649
	c4.007-5.416,11.567-6.556,16.949-2.607c5.398,3.973,6.572,11.559,2.599,16.94l-13.814,18.675
	C219.186,358.053,211.139,359.36,205.975,355.572z M261.197,352.109l-13.848,18.743c-3.688,5.054-11.702,6.412-16.932,2.59
	c-5.398-3.974-6.572-11.534-2.615-16.932l13.881-18.743c3.923-5.33,11.5-6.555,16.932-2.557
	C264.014,339.143,265.187,346.736,261.197,352.109z M273.955,376.166c-2.432,0-5.08-0.561-7.746-1.936
	c4.041-5.465,9.941-12.732,12.138-17.921l2.732,2.724C289.445,367.398,283.259,376.166,273.955,376.166z M358.447,325.019
	c-4.729,4.736-12.406,4.736-17.134,0l-34.769-34.769c-1.124-1.148-2.984-1.183-4.175-0.093c-1.291,1.157-1.341,3.16-0.101,4.376
	l32.188,32.212c4.744,4.736,4.744,12.397,0,17.134c-4.728,4.735-12.406,4.735-17.133,0l-26.152-26.17
	c-1.174-1.164-3.052-1.182-4.242-0.041c-1.24,1.182-1.24,3.135-0.05,4.324l21.692,21.719c4.744,4.736,4.744,12.397,0,17.142
	c-4.711,4.728-12.389,4.735-17.115,0l-11.232-11.224c2.916-17.888-10.21-32.465-26.27-33.848
	c-4.258-10.15-13.78-16.906-24.409-17.828c-4.091-9.799-13.462-16.891-24.442-17.846c-8.684-20.746-37.049-24.577-50.645-6.027
	l-7.561,10.218c-7.711-2.899-16.026-5.313-25.565-7.577l21.861-80.427c32.606-0.285,58.29-31.19,88.398-12.171
	c-9.857,12.188-17.938,21.919-30.125,29.027c-9.74,5.691-14.3,16.84-11.333,27.745c3.705,13.68,17.586,23.235,33.78,23.235
	c21.425,0,43.604-17.603,60.452-30.234c9.924,9.899,65.766,64.811,74.082,73.989C363.174,312.621,363.174,320.274,358.447,325.019z
	 M366.946,291.49c0,0-53.646-52.942-69.572-68.885c-8.517-8.5-14.384-9.656-24.208-1.743
	c-12.488,10.066-27.795,20.293-39.094,24.258c-22.163,7.753-34.267-11.115-23.957-17.142c20.939-12.213,31.148-29.824,48.734-49.748
	c4.879-5.532,10.695-7.578,16.631-7.578c6.453,0,13.059,2.406,18.793,5.365c26.034,13.453,49.739,22.64,74.685,20.812l22.246,81.852
	C383.258,282.236,375.244,286.377,366.946,291.49z" fill="white"/>
</svg>
